<svg width="49" height="46" viewBox="0 0 49 46" fill="none" xmlns="http://www.w3.org/2000/svg">
<path fill-rule="evenodd" clip-rule="evenodd" d="M26.4095 45.6465C38.8369 45.6465 48.9112 35.5729 48.9112 23.1465C48.9112 10.7201 38.8369 0.646484 26.4095 0.646484C13.9822 0.646484 3.90786 10.7201 3.90786 23.1465C3.90786 25.328 4.21834 27.437 4.79753 29.4317L4.1228 28.8537C3.70774 28.4981 3.11351 28.443 2.64019 28.7163L1.42365 29.4186C1.12769 29.5895 0.911735 29.8709 0.82329 30.201C0.734845 30.531 0.781155 30.8827 0.952033 31.1787L3.80154 36.1138C3.92309 36.3243 4.09508 36.4876 4.29343 36.5971C4.29492 36.8184 4.35343 37.0377 4.46605 37.2328L7.31556 42.1679C7.48644 42.4638 7.76788 42.6798 8.09799 42.7682C8.42809 42.8567 8.77981 42.8104 9.07576 42.6395L9.93979 42.1407C10.0234 42.0924 10.0996 42.0362 10.1679 41.9735C10.2569 41.9455 10.3434 41.9077 10.4259 41.8601L11.3175 41.3453C11.6736 41.1398 11.9031 40.7819 11.952 40.3884C15.8623 43.6702 20.9051 45.6465 26.4095 45.6465ZM6.87711 32.9098L6.87862 32.9088L6.89093 32.9018L6.89244 32.9009L5.98868 28.271L7.18988 27.5775L10.0394 32.5127L9.21834 32.9866L7.01936 29.1781L7.00553 29.1861L7.00554 29.1861L7.00402 29.187L7.83439 33.7856L7.12395 34.1957L6.52627 33.69L6.52842 33.6941L3.55483 31.1783L3.54101 31.1862L5.74 34.9947L4.91745 35.4696L2.06794 30.5345L3.28449 29.8321L6.87711 32.9098ZM7.54341 35.4145L7.54371 35.4144C7.58225 35.4735 7.62105 35.5325 7.66013 35.5912L7.66547 35.6249L7.5619 35.4455C7.55586 35.4351 7.54969 35.4247 7.54341 35.4145ZM9.78156 40.7442L9.31062 37.7731L9.31266 37.7755L8.82751 34.7148L9.74532 34.185L14.4957 38.0228L13.571 38.5565L12.3536 37.5175L12.352 37.5185L10.3836 38.6548L10.3821 38.6558L10.6732 40.2295L9.78156 40.7442ZM26.4095 27.6465C23.9241 27.6465 21.9092 25.6318 21.9092 23.1465C21.9092 20.6612 23.9241 18.6465 26.4095 18.6465C28.895 18.6465 30.9099 20.6612 30.9099 23.1465C30.9099 25.6318 28.895 27.6465 26.4095 27.6465ZM12.6807 30.1491C12.7094 30.1326 12.7371 30.116 12.7639 30.0993C13.0007 29.9521 13.1648 29.7996 13.2562 29.6418C13.3623 29.4638 13.4136 29.2867 13.4102 29.1105C13.4087 28.927 13.3657 28.746 13.2811 28.5676C13.2011 28.3864 13.1132 28.2129 13.0174 28.047L11.3572 25.1717L12.2197 24.6738L14.0435 27.8325C14.0714 27.8808 14.0976 27.9288 14.1221 27.9764C14.1493 28.0291 14.1744 28.0814 14.1974 28.1334L14.2084 28.1583C14.2955 28.3599 14.3518 28.5557 14.3773 28.7458C14.3918 28.8546 14.3976 28.9616 14.3946 29.0668L14.3937 29.0923L14.3932 29.1035C14.3853 29.2666 14.3562 29.4253 14.3058 29.5796C14.2463 29.7609 14.1573 29.9332 14.039 30.0968L14.0322 30.1062C13.984 30.172 13.9311 30.2363 13.8734 30.2993C13.6946 30.4942 13.4771 30.6712 13.2208 30.8303C13.1857 30.8521 13.1498 30.8736 13.1133 30.8947C12.8091 31.0703 12.51 31.1907 12.216 31.256C11.9219 31.3213 11.6398 31.3275 11.3696 31.2746C11.1014 31.2144 10.851 31.0948 10.6186 30.9156C10.3861 30.7365 10.1781 30.488 9.9945 30.17L8.17068 27.0113L9.03316 26.5134L10.6934 29.3888C10.7475 29.4825 10.8042 29.5757 10.8636 29.6683C10.9093 29.7397 10.9566 29.8107 11.0055 29.8814C11.0729 29.9736 11.1465 30.0552 11.2262 30.1261C11.2846 30.178 11.3462 30.2242 11.4111 30.2646C11.4564 30.2904 11.5038 30.3124 11.5531 30.3307C11.5614 30.3337 11.5697 30.3367 11.5781 30.3395C11.6912 30.3779 11.8146 30.3971 11.9483 30.3969C11.9725 30.3966 11.9972 30.3951 12.0224 30.3926C12.213 30.3736 12.4325 30.2924 12.6807 30.1491ZM17.541 27.3986C17.5693 27.3822 17.5967 27.3658 17.6233 27.3492C17.7745 27.255 17.8969 27.1573 17.9905 27.0561C18.0975 26.9328 18.1725 26.8127 18.2156 26.6957C18.2586 26.5787 18.2733 26.4658 18.2596 26.357C18.2432 26.2435 18.2085 26.1407 18.1552 26.0486C18.0462 25.8596 17.9226 25.7467 17.7845 25.7097C17.6483 25.6654 17.5189 25.6541 17.3962 25.6758C17.1839 25.7123 16.9442 25.7708 16.6773 25.8512C16.4123 25.9243 16.0827 26.0132 15.6885 26.1179C15.4446 26.185 15.2259 26.216 15.0325 26.2109C14.8411 26.1986 14.6719 26.161 14.5251 26.0983C14.3783 26.0356 14.2506 25.9527 14.1419 25.8496C14.0378 25.7438 13.9485 25.6264 13.874 25.4973C13.7303 25.2485 13.6573 25.005 13.6549 24.7668C13.6545 24.5212 13.7049 24.2894 13.8062 24.0711C13.9076 23.8529 14.0505 23.6536 14.2352 23.4733C14.3953 23.3106 14.5705 23.1701 14.7609 23.0517C14.7693 23.0465 14.7778 23.0413 14.7863 23.0361C14.7922 23.0326 14.7981 23.029 14.804 23.0255L14.8385 23.0053C15.0965 22.8563 15.3584 22.7512 15.6241 22.69C15.7945 22.6463 15.9609 22.6237 16.1232 22.6222L16.1376 22.6221C16.2253 22.6219 16.3118 22.6279 16.3971 22.64C16.4331 22.6446 16.4687 22.6504 16.5039 22.6572C16.7157 22.6982 16.9142 22.7785 17.0992 22.8982C17.2927 23.0209 17.4598 23.1942 17.6005 23.4184L17.6052 23.4259C17.6178 23.4461 17.6302 23.4667 17.6423 23.4878L16.7798 23.9857C16.5732 23.681 16.3359 23.5201 16.0678 23.5028C15.7971 23.4809 15.512 23.5564 15.2125 23.7293C15.1972 23.7381 15.182 23.7473 15.1669 23.7567C15.0814 23.8099 14.999 23.8724 14.9199 23.9444C14.8817 23.9763 14.8464 24.01 14.8141 24.0454L14.8033 24.0574C14.7597 24.1069 14.7217 24.1596 14.6894 24.2157C14.6458 24.2849 14.6146 24.3595 14.5961 24.4395C14.5888 24.4711 14.5834 24.5036 14.58 24.5369C14.5754 24.6088 14.5862 24.6825 14.6126 24.7581L14.6154 24.766C14.6309 24.8087 14.6513 24.8519 14.6766 24.8958C14.6975 24.9319 14.7197 24.9652 14.7433 24.9956C14.7757 25.0374 14.8106 25.0737 14.8481 25.1046C14.8573 25.1122 14.8667 25.1195 14.8763 25.1265C14.8922 25.1381 14.9086 25.1488 14.9254 25.1586C14.9667 25.1826 15.0107 25.2011 15.0572 25.2141L15.0751 25.2187L15.0948 25.2224C15.2027 25.2415 15.3184 25.2433 15.4419 25.228L15.45 25.227C15.5087 25.2193 15.5691 25.2079 15.6313 25.1925C15.6524 25.1865 15.7358 25.166 15.8815 25.131C15.9464 25.1125 16.0145 25.0933 16.0857 25.0734C16.1766 25.0481 16.2727 25.0217 16.3739 24.9942L16.4141 24.9833L16.4345 24.9778C16.594 24.9349 16.7498 24.894 16.902 24.8552C17.0424 24.814 17.1506 24.7833 17.2266 24.7631L17.233 24.7614L17.2368 24.7604L17.2747 24.7506C17.4653 24.7082 17.6458 24.6962 17.8161 24.7146C17.8893 24.7225 17.9602 24.7351 18.0287 24.7526L18.0389 24.7552C18.0558 24.7596 18.0725 24.7643 18.089 24.7693C18.1582 24.7902 18.2248 24.8161 18.2889 24.8471C18.4357 24.9098 18.5648 24.995 18.6762 25.1028C18.7922 25.2079 18.8874 25.3249 18.9619 25.4539C18.9808 25.4867 18.9986 25.5195 19.0153 25.5521C19.1316 25.7795 19.193 26.0029 19.1996 26.2223L19.2 26.2395L19.2001 26.2656C19.2013 26.523 19.1456 26.7671 19.0331 26.9979C18.9286 27.2124 18.785 27.4096 18.6023 27.5897L18.5842 27.6074L18.5598 27.6306C18.387 27.7992 18.198 27.9475 17.9927 28.0755C17.9603 28.0957 17.9275 28.1154 17.8943 28.1346C17.6132 28.2968 17.3283 28.4152 17.0395 28.4898C16.7508 28.5643 16.473 28.5834 16.2062 28.5469C15.9394 28.5105 15.6868 28.4136 15.4485 28.2563C15.2076 28.0943 14.997 27.8627 14.8168 27.5612L15.6793 27.0633C15.7544 27.1934 15.8372 27.3015 15.9278 27.3877C15.9471 27.4061 15.9667 27.4235 15.9867 27.4399L15.993 27.4449C16.0134 27.4614 16.0342 27.4769 16.0554 27.4913C16.1426 27.5506 16.2343 27.5956 16.3305 27.6264C16.3907 27.6456 16.4528 27.6593 16.5166 27.6674C16.6176 27.6776 16.7202 27.6763 16.8244 27.6634C16.8884 27.6555 16.9531 27.6432 17.0183 27.6266C17.1733 27.5811 17.329 27.5155 17.4854 27.4299C17.5039 27.4197 17.5224 27.4093 17.541 27.3986ZM11.7463 36.9926L11.7448 36.9935L10.2395 37.8625L10.2379 37.8635L9.75926 35.3105L9.76077 35.3096L9.77999 35.2985L9.78151 35.2976L11.7463 36.9926ZM15.3987 36.5061L15.4002 36.5052L17.9078 35.0576L18.3388 35.8041L14.9672 37.7505L12.1177 32.8154L12.9802 32.3175L15.3987 36.5061ZM6.44599 36.0897L5.58196 36.5885L8.43147 41.5237L9.29549 41.0249L6.44599 36.0897ZM26.4294 24.1163C26.9782 24.1163 27.4232 23.6714 27.4232 23.1226C27.4232 22.5738 26.9782 22.1289 26.4294 22.1289C25.8806 22.1289 25.4356 22.5738 25.4356 23.1226C25.4356 23.6714 25.8806 24.1163 26.4294 24.1163Z" fill="white"/>
</svg>
