<svg width="49" height="46" viewBox="0 0 49 46" fill="none" xmlns="http://www.w3.org/2000/svg">
<path fill-rule="evenodd" clip-rule="evenodd" d="M48.9127 23.1465C48.9127 35.5729 38.8383 45.6465 26.411 45.6465C20.9065 45.6465 15.8637 43.6702 11.9535 40.3884C11.9045 40.7819 11.6751 41.1398 11.319 41.3453L10.4273 41.8601C10.3448 41.9077 10.2583 41.9455 10.1694 41.9735C10.1011 42.0362 10.0249 42.0924 9.94122 42.1407L9.0772 42.6395C8.78124 42.8104 8.42952 42.8567 8.09942 42.7682C7.76932 42.6798 7.48787 42.4638 7.317 42.1679L4.46749 37.2328C4.35487 37.0377 4.29635 36.8184 4.29487 36.5971C4.09652 36.4876 3.92453 36.3243 3.80297 36.1138L0.953469 31.1787C0.782592 30.8827 0.736281 30.531 0.824726 30.201C0.913171 29.8709 1.12913 29.5895 1.42508 29.4186L2.64163 28.7163C3.11495 28.443 3.70918 28.4981 4.12424 28.8537L4.79896 29.4317C4.21978 27.437 3.9093 25.328 3.9093 23.1465C3.9093 10.7201 13.9836 0.646484 26.411 0.646484C38.8383 0.646484 48.9127 10.7201 48.9127 23.1465ZM6.88006 32.9088L6.87854 32.9098L3.28592 29.8321L2.06938 30.5345L4.91888 35.4696L5.74143 34.9947L3.54245 31.1862L3.55627 31.1783L6.52985 33.6941C6.52914 33.6927 6.52842 33.6914 6.5277 33.69L7.12539 34.1957L7.83583 33.7856L7.00545 29.187L7.00698 29.1861L7.00697 29.1861L7.02079 29.1781L9.21978 32.9866L10.0408 32.5127L7.19131 27.5775L5.99012 28.271L6.89388 32.9009L6.89237 32.9018L6.88006 32.9088ZM7.54515 35.4144C7.54505 35.4144 7.54495 35.4145 7.54485 35.4145C7.55113 35.4247 7.55729 35.4351 7.56333 35.4455L7.66691 35.6249L7.66157 35.5912C7.62249 35.5325 7.58368 35.4735 7.54515 35.4144ZM9.31205 37.7731L9.783 40.7442L10.6747 40.2295L10.3835 38.6558L10.385 38.6548L12.3535 37.5185L12.355 37.5175L13.5724 38.5565L14.4971 38.0228L9.74675 34.185L8.82895 34.7148L9.31409 37.7755C9.31341 37.7747 9.31273 37.7739 9.31205 37.7731ZM21.9106 23.1465C21.9106 25.6318 23.9255 27.6465 26.411 27.6465C28.8964 27.6465 30.9113 25.6318 30.9113 23.1465C30.9113 20.6612 28.8964 18.6465 26.411 18.6465C23.9255 18.6465 21.9106 20.6612 21.9106 23.1465ZM12.7654 30.0993C12.7386 30.116 12.7108 30.1326 12.6822 30.1491C12.4339 30.2924 12.2145 30.3736 12.0238 30.3926C11.9986 30.3951 11.9739 30.3966 11.9497 30.3969C11.8161 30.3971 11.6927 30.3779 11.5795 30.3395C11.5712 30.3367 11.5628 30.3337 11.5546 30.3307C11.5052 30.3124 11.4579 30.2904 11.4125 30.2646C11.3476 30.2242 11.286 30.178 11.2277 30.1261C11.148 30.0552 11.0744 29.9736 11.0069 29.8814C10.9581 29.8107 10.9108 29.7397 10.8651 29.6683C10.8057 29.5757 10.7489 29.4825 10.6948 29.3888L9.0346 26.5134L8.17212 27.0113L9.99593 30.17C10.1795 30.488 10.3875 30.7365 10.62 30.9156C10.8525 31.0948 11.1028 31.2144 11.371 31.2746C11.6412 31.3275 11.9233 31.3213 12.2174 31.256C12.5115 31.1907 12.8106 31.0703 13.1147 30.8947C13.1513 30.8736 13.1871 30.8521 13.2222 30.8303C13.4785 30.6712 13.696 30.4942 13.8748 30.2993C13.9325 30.2363 13.9854 30.172 14.0336 30.1062L14.0405 30.0968C14.1588 29.9332 14.2477 29.7609 14.3072 29.5796C14.3576 29.4253 14.3868 29.2666 14.3946 29.1035L14.3951 29.0923L14.396 29.0668C14.3991 28.9616 14.3933 28.8546 14.3787 28.7458C14.3533 28.5557 14.297 28.3599 14.2098 28.1583L14.1989 28.1334C14.1758 28.0814 14.1507 28.0291 14.1236 27.9764C14.099 27.9288 14.0728 27.8808 14.045 27.8325L12.2211 24.6738L11.3586 25.1717L13.0188 28.047C13.1146 28.2129 13.2025 28.3864 13.2825 28.5676C13.3671 28.746 13.4102 28.927 13.4117 29.1105C13.4151 29.2867 13.3637 29.4638 13.2576 29.6418C13.1663 29.7996 13.0022 29.9521 12.7654 30.0993ZM17.6247 27.3492C17.5982 27.3658 17.5708 27.3822 17.5424 27.3986C17.5239 27.4093 17.5053 27.4197 17.4868 27.4299C17.3304 27.5155 17.1747 27.5811 17.0198 27.6266C16.9545 27.6432 16.8899 27.6555 16.8258 27.6634C16.7216 27.6763 16.619 27.6776 16.518 27.6674C16.4542 27.6593 16.3922 27.6456 16.332 27.6264C16.2357 27.5956 16.144 27.5506 16.0569 27.4913C16.0357 27.4769 16.0149 27.4614 15.9944 27.4449L15.9882 27.4399C15.9682 27.4235 15.9485 27.4061 15.9292 27.3877C15.8387 27.3015 15.7558 27.1934 15.6807 27.0633L14.8182 27.5612C14.9985 27.8627 15.209 28.0943 15.45 28.2563C15.6883 28.4136 15.9408 28.5105 16.2076 28.5469C16.4744 28.5834 16.7522 28.5643 17.041 28.4898C17.3297 28.4152 17.6146 28.2968 17.8957 28.1346C17.9289 28.1154 17.9617 28.0957 17.9941 28.0755C18.1994 27.9475 18.3884 27.7992 18.5612 27.6306L18.5856 27.6074L18.6037 27.5897C18.7864 27.4096 18.9301 27.2124 19.0346 26.9979C19.1471 26.7671 19.2027 26.523 19.2016 26.2656L19.2014 26.2395L19.201 26.2223C19.1944 26.0029 19.133 25.7795 19.0168 25.5521C19.0001 25.5195 18.9823 25.4867 18.9633 25.4539C18.8888 25.3249 18.7936 25.2079 18.6776 25.1028C18.5663 24.995 18.4372 24.9098 18.2904 24.8471C18.2262 24.8161 18.1596 24.7902 18.0905 24.7693C18.0739 24.7643 18.0572 24.7596 18.0404 24.7552L18.0301 24.7526C17.9616 24.7351 17.8908 24.7225 17.8175 24.7146C17.6472 24.6962 17.4667 24.7082 17.2762 24.7506L17.2383 24.7604L17.2345 24.7614L17.2281 24.7631C17.1521 24.7833 17.0439 24.814 16.9034 24.8552C16.7512 24.894 16.5954 24.9349 16.4359 24.9778L16.4155 24.9833L16.3754 24.9942C16.2741 25.0217 16.178 25.0481 16.0871 25.0734C16.0159 25.0933 15.9478 25.1125 15.883 25.131C15.7373 25.166 15.6539 25.1865 15.6328 25.1925C15.5706 25.2079 15.5101 25.2193 15.4514 25.227L15.4433 25.228C15.3198 25.2433 15.2041 25.2415 15.0962 25.2224L15.0765 25.2187L15.0586 25.2141C15.0121 25.2011 14.9682 25.1826 14.9269 25.1586C14.9101 25.1488 14.8937 25.1381 14.8777 25.1265C14.8682 25.1195 14.8588 25.1122 14.8495 25.1046C14.812 25.0737 14.7771 25.0374 14.7447 24.9956C14.7211 24.9652 14.6989 24.9319 14.6781 24.8958C14.6527 24.8519 14.6323 24.8087 14.6169 24.766L14.6141 24.7581C14.5877 24.6825 14.5768 24.6088 14.5814 24.5369C14.5848 24.5036 14.5902 24.4711 14.5975 24.4395C14.6161 24.3595 14.6472 24.2849 14.6909 24.2157C14.7231 24.1596 14.7611 24.1069 14.8047 24.0574L14.8156 24.0454C14.8478 24.01 14.8831 23.9763 14.9213 23.9444C15.0005 23.8724 15.0828 23.8099 15.1683 23.7567C15.1834 23.7473 15.1986 23.7381 15.2139 23.7293C15.5135 23.5564 15.7986 23.4809 16.0693 23.5028C16.3373 23.5201 16.5746 23.681 16.7813 23.9857L17.6437 23.4878C17.6316 23.4667 17.6192 23.4461 17.6066 23.4259L17.602 23.4184C17.4613 23.1942 17.2942 23.0209 17.1006 22.8982C16.9156 22.7785 16.7172 22.6982 16.5054 22.6572C16.4701 22.6504 16.4345 22.6446 16.3985 22.64C16.3132 22.6279 16.2267 22.6219 16.139 22.6221L16.1246 22.6222C15.9623 22.6237 15.7959 22.6463 15.6255 22.69C15.3598 22.7512 15.098 22.8563 14.8399 23.0053L14.8055 23.0255C14.791 23.0341 14.7766 23.0429 14.7623 23.0517C14.5719 23.1701 14.3967 23.3106 14.2366 23.4733C14.052 23.6536 13.909 23.8529 13.8077 24.0711C13.7063 24.2894 13.6559 24.5212 13.6563 24.7668C13.6587 25.005 13.7318 25.2485 13.8754 25.4973C13.9499 25.6264 14.0392 25.7438 14.1433 25.8496C14.252 25.9527 14.3798 26.0356 14.5266 26.0983C14.6734 26.161 14.8425 26.1986 15.0339 26.2109C15.2273 26.216 15.446 26.185 15.6899 26.1179C16.0841 26.0132 16.4137 25.9243 16.6787 25.8512C16.9457 25.7708 17.1853 25.7123 17.3977 25.6758C17.5203 25.6541 17.6497 25.6654 17.7859 25.7097C17.924 25.7467 18.0476 25.8596 18.1567 26.0486C18.2099 26.1407 18.2447 26.2435 18.261 26.357C18.2747 26.4658 18.26 26.5787 18.217 26.6957C18.174 26.8127 18.0989 26.9328 17.9919 27.0561C17.8983 27.1573 17.7759 27.255 17.6247 27.3492ZM11.7462 36.9935L11.7478 36.9926L9.78294 35.2976L9.78143 35.2985L9.76221 35.3096L9.76069 35.3105L10.2394 37.8635L10.2409 37.8625L11.7462 36.9935ZM15.4016 36.5052L15.4001 36.5061L12.9816 32.3175L12.1191 32.8154L14.9686 37.7505L18.3402 35.8041L17.9092 35.0576L15.4016 36.5052ZM5.5834 36.5885L6.44742 36.0897L9.29693 41.0249L8.4329 41.5237L5.5834 36.5885Z" fill="black"/>
</svg>
